<svg width="923" height="924" xmlns="http://www.w3.org/2000/svg" xmlns:xlink="http://www.w3.org/1999/xlink" overflow="hidden"><defs><clipPath id="clip0"><rect x="1795" y="130" width="923" height="924"/></clipPath></defs><g clip-path="url(#clip0)" transform="translate(-1795 -130)"><path d="M1802 592C1802 340.711 2005.49 137 2256.5 137 2507.51 137 2711 340.711 2711 592 2711 843.29 2507.51 1047 2256.5 1047 2005.49 1047 1802 843.29 1802 592Z" stroke="#000000" stroke-width="13.75" stroke-linejoin="round" stroke-miterlimit="10" fill="none" fill-rule="evenodd"/><path d="M2230 1043 2256 1004 2282 1043Z" fill-rule="evenodd"/><path d="M2282 141 2256 180 2230 141Z" fill-rule="evenodd"/><path d="M2706 611 2667 585 2706 559Z" fill-rule="evenodd"/><path d="M1807 558 1846 584 1807 610Z" fill-rule="evenodd"/><path d="M2527.52 221.102 2484.64 239.96 2483.73 193.125Z" fill-rule="evenodd"/><path d="M2672.54 395.741 2625.85 391.924 2647.33 350.296Z" fill-rule="evenodd"/><path d="M0 38.9764 25.9843 0 51.9685 38.9764Z" fill-rule="evenodd" transform="matrix(0.842726 -0.538343 -0.538343 -0.842726 2003.79 253.062)"/><path d="M0 38.9764 25.9843 0 51.9685 38.9764Z" fill-rule="evenodd" transform="matrix(0.485072 -0.874474 -0.874474 -0.485072 1877.02 408.453)"/><path d="M0 38.9764 25.9843 0 51.9685 38.9764Z" fill-rule="evenodd" transform="matrix(-0.842726 0.538343 0.538343 0.842726 2507.17 928.848)"/><path d="M0 38.9764 25.9843 0 51.9685 38.9764Z" fill-rule="evenodd" transform="matrix(-0.485072 0.874474 0.874474 0.485072 2639.08 768.149)"/><path d="M1983.43 962.581 2026.31 943.723 2027.22 990.558Z" fill-rule="evenodd"/><path d="M1843.56 793.249 1890.25 797.065 1868.77 838.694Z" fill-rule="evenodd"/></g></svg>